<svg height="448pt" viewBox="0 -20 448 448" width="448pt" xmlns="http://www.w3.org/2000/svg"><path d="m0 408.066406h416v-304h-119.054688l-40.945312 81.867188c.152344 30.808594 16.335938 59.320312 42.710938 75.246094l31.472656 18.886718s3.199218 2.28125 3.441406 2.511719c1.5 1.433594 2.359375 3.414063 2.375 5.488281v48c0 4.417969-3.582031 8-8 8h-16v32h-176v-32h-16c-4.417969 0-8-3.582031-8-8v-48c.007812-1.992187.796875-3.90625 2.199219-5.328125.375-.390625 3.585937-2.671875 3.585937-2.671875l31.488282-18.886718c26.382812-15.921876 42.570312-44.433594 42.726562-75.246094l-40.945312-81.867188h-31.054688v120c0 4.417969-3.582031 8-8 8h-112zm0 0"/><path d="m112 88.066406h32.929688c-1.503907-5.222656-2.476563-10.582031-2.914063-16h-110.015625v97.601563l74.167969-79.113281c1.519531-1.597657 3.628906-2.496094 5.832031-2.488282zm0 0"/><path d="m448 376.066406v-304h-142.015625c-.4375 5.417969-1.410156 10.777344-2.914063 16h120.929688c4.417969 0 8 3.582032 8 8v280zm0 0"/><path d="m104 216.066406v-99.765625l-93.535156 99.765625zm0 0"/><path d="m320 328.066406v-32h-192v32zm0 0"/><path d="m240.191406 192.066406h-32.382812c-2.199219 34.183594-20.988282 65.121094-50.304688 82.832032l-8.617187 5.167968h150.226562l-8.617187-5.167968c-29.316406-17.710938-48.105469-48.648438-50.304688-82.832032zm0 0"/><path d="m167.710938 31.453125c-12.136719 19.476563-13.230469 43.878906-2.886719 64.367187l40.121093 80.246094h38.109376l40.144531-80.246094c15.878906-31.65625 4.007812-70.203124-26.921875-87.449218-30.933594-17.242188-69.960938-7.070313-88.542969 23.082031zm0 0"/><path d="m152 344.066406h144v16h-144zm0 0"/></svg>