<?xml version="1.0" encoding="iso-8859-1"?>
<!-- Generator: Adobe Illustrator 16.0.0, SVG Export Plug-In . SVG Version: 6.00 Build 0)  -->
<!DOCTYPE svg PUBLIC "-//W3C//DTD SVG 1.1//EN" "http://www.w3.org/Graphics/SVG/1.1/DTD/svg11.dtd">
<svg version="1.1" id="Capa_1" xmlns="http://www.w3.org/2000/svg" xmlns:xlink="http://www.w3.org/1999/xlink" x="0px" y="0px"
	 width="45.336px" height="45.335px" viewBox="0 0 45.336 45.335" style="enable-background:new 0 0 45.336 45.335;"
	 xml:space="preserve">
<g>
	<g>
		<path d="M43.041,34.63V14.732c0.906-0.027,1.688-0.657,1.902-1.544c0.219-0.906-0.211-1.845-1.041-2.271L24.221,0.711
			c-0.974-0.504-2.13-0.504-3.104-0.001L1.373,10.921c-0.829,0.428-1.255,1.366-1.034,2.271c0.22,0.903,1.027,1.538,1.957,1.542
			V34.63c-1.239,0.132-2.203,1.181-2.203,2.454c0,1.363,1.104,2.47,2.467,2.47h40.217c1.363,0,2.467-1.106,2.467-2.47
			C45.243,35.811,44.279,34.762,43.041,34.63z M10.94,34.597H8.352V14.721h2.589L10.94,34.597L10.94,34.597z M28.283,34.597H17.052
			V14.721h11.231V34.597z M36.982,34.597h-2.588V14.721h2.588V34.597z"/>
		<path d="M43.361,41.039H1.974C0.884,41.039,0,41.932,0,43.021s0.884,1.981,1.974,1.981h41.387c1.092,0,1.975-0.893,1.975-1.981
			S44.452,41.039,43.361,41.039z"/>
	</g>
</g>
<g>
</g>
<g>
</g>
<g>
</g>
<g>
</g>
<g>
</g>
<g>
</g>
<g>
</g>
<g>
</g>
<g>
</g>
<g>
</g>
<g>
</g>
<g>
</g>
<g>
</g>
<g>
</g>
<g>
</g>
</svg>
