<svg height="454pt" viewBox="-30 0 454 454.52232" width="454pt" xmlns="http://www.w3.org/2000/svg"><path d="m174.609375 0-174.347656 134.519531h348.246093zm0 0"/><path d="m147.117188 302.21875c0 3.464844-2.808594 6.273438-6.273438 6.273438s-6.273438-2.808594-6.273438-6.273438 2.808594-6.273438 6.273438-6.273438 6.273438 2.808594 6.273438 6.273438zm0 0"/><path d="m314.402344 262.519531v-114h-284v182.28125l70 .644531v-43.148437c.03125-14.125 11.398437-25.605469 25.523437-25.777344zm0 0"/><path d="m235.425781 293.464844c-28.816406.003906-52.171875 23.363281-52.167969 52.175781 0 28.8125 23.359376 52.171875 52.171876 52.167969 28.8125 0 52.171874-23.359375 52.171874-52.171875-.035156-28.800781-23.375-52.140625-52.175781-52.171875zm25.371094 28.5625-19.394531 24.53125v2.960937h6.140625c3.863281 0 7 3.132813 7 7 0 3.867188-3.136719 7-7 7h-6.140625v4h7.140625c3.863281 0 7 3.132813 7 7 0 3.867188-3.136719 7-7 7h-7c0 3.867188-3.136719 7-7 7-3.867188 0-7-3.132812-7-7h-8c-3.867188 0-7-3.132812-7-7 0-3.867187 3.132812-7 7-7h7.859375v-4h-8.859375c-3.867188 0-7-3.132812-7-7 0-3.867187 3.132812-7 7-7h8.859375v-2.613281l-19.53125-24.878906c-2.335938-3.054688-1.78125-7.421875 1.242187-9.792969 3.027344-2.371094 7.398438-1.867187 9.808594 1.128906l15.480469 19.632813 15.46875-19.632813c1.542968-1.976562 4.023437-2.972656 6.5-2.613281 2.480468.359375 4.574218 2.019531 5.492187 4.351562.914063 2.332032.511719 4.972657-1.058593 6.925782zm0 0"/><path d="m382.925781 316.519531h-12.523437v86.460938c-.035156 14.066406-11.414063 25.472656-25.480469 25.539062h-192.519531v14.84375c.035156 3.011719 1.273437 5.882813 3.4375 7.980469 2.167968 2.09375 5.078125 3.238281 8.089844 3.175781h219c3.003906.058594 5.910156-1.085937 8.066406-3.183593 2.152344-2.097657 3.378906-4.96875 3.40625-7.972657v-114.6875c0-6.300781-5.175782-12.15625-11.476563-12.15625zm0 0"/><path d="m356.402344 403.09375v-115.148438c0-6.308593-5.117188-11.425781-11.429688-11.425781h-219.144531c-6.3125 0-11.425781 5.117188-11.425781 11.425781v115.148438c0 6.308594 5.113281 11.425781 11.425781 11.425781h219.144531c6.3125 0 11.429688-5.117187 11.429688-11.425781zm-215.558594-80.601562c-11.199219 0-20.277344-9.078126-20.277344-20.273438 0-11.199219 9.078125-20.277344 20.277344-20.277344 11.199219.003906 20.277344 9.082032 20.273438 20.277344-.011719 11.191406-9.082032 20.261719-20.273438 20.273438zm94.582031 89.316406c-36.546875-.003906-66.171875-29.628906-66.167969-66.175782 0-36.542968 29.628907-66.167968 66.171876-66.167968 36.546874 0 66.171874 29.628906 66.171874 66.171875-.042968 36.53125-29.648437 66.132812-66.175781 66.171875zm94.578125-3.03125c-11.199218 0-20.273437-9.078125-20.277344-20.273438 0-11.199218 9.078126-20.277344 20.277344-20.277344 11.195313 0 20.273438 9.078126 20.273438 20.277344-.011719 11.191406-9.082032 20.261719-20.277344 20.273438zm0 0"/><path d="m336.277344 388.503906c0 3.464844-2.808594 6.273438-6.273438 6.273438s-6.273437-2.808594-6.273437-6.273438 2.808593-6.273437 6.273437-6.273437 6.273438 2.808593 6.273438 6.273437zm0 0"/></svg>