<svg height="586pt" viewBox="-78 -18 586 586.66669" width="586pt" xmlns="http://www.w3.org/2000/svg"><path d="m163.570312 164.574219c-11.359374 11.359375-18.164062 26.476562-19.140624 42.5 13.359374-1.277344 25.914062-6.976563 35.679687-16.183594-9.230469-5.796875-15.320313-15.480469-16.539063-26.316406zm0 0"/><path d="m209.707031 329.21875c17.4375-.042969 34.101563-7.195312 46.152344-19.804688 12.335937-12.570312 19.234375-29.476562 19.222656-47.089843v-66.074219h-72.664062c-20.21875 25-43.585938 29.976562-58.585938 30.855469v35.21875c.085938 17.640625 7.082031 34.546875 19.484375 47.089843 12.144532 12.617188 28.882813 19.761719 46.390625 19.804688zm19.320313-91.585938c5.527344 0 10 4.476563 10 10-.050782 1.0625.484375 2.0625 1.394531 2.609376.910156.546874 2.050781.546874 2.960937 0 .910157-.546876 1.445313-1.546876 1.394532-2.609376 0-5.523437 4.472656-10 10-10 5.519531 0 10 4.476563 10 10 .144531 8.269532-4.179688 15.976563-11.320313 20.15625-7.136719 4.179688-15.976562 4.179688-23.109375 0-7.140625-4.179687-11.464844-11.886718-11.320312-20.15625 0-5.523437 4.484375-10 10.007812-10zm-74.355469 10c0-5.523437 4.480469-10 10-10 5.523437 0 10 4.476563 10 10 .078125 1.527344 1.34375 2.726563 2.871094 2.726563 1.535156 0 2.792969-1.199219 2.871093-2.726563 0-5.523437 4.480469-10 10-10 5.523438 0 10 4.476563 10 10-.222656 12.46875-10.398437 22.460938-22.871093 22.460938-12.46875 0-22.644531-9.992188-22.871094-22.460938zm0 0"/><path d="m199.105469 176.25h93.351562c-4.847656-18.316406-21.359375-31.117188-40.308593-31.25h-53.042969c-8.625 0-15.625 6.996094-15.625 15.625s7 15.625 15.625 15.625zm0 0"/><path d="m412.402344 117.5-99.820313-102.691406v87.855468c.007813 3.957032 1.589844 7.75 4.402344 10.535157 2.8125 2.78125 6.613281 4.335937 10.574219 4.300781zm0 0"/><path d="m426.332031 509.851562v-372.351562h-98.773437c-9.261719.023438-18.148438-3.632812-24.710938-10.164062-6.5625-6.535157-10.253906-15.414063-10.265625-24.671876v-102.664062h-255.960937c-22.167969.0703125-40.140625 17.984375-40.289063 40.148438v469.703124c.148438 22.164063 18.121094 40.078126 40.289063 40.148438h349.425781c22.167969-.070312 40.140625-17.984375 40.285156-40.148438zm-87.472656-7.351562h-262.75c-5.523437 0-10-4.476562-10-10s4.476563-10 10-10h262.75c5.519531 0 10 4.476562 10 10s-4.480469 10-10 10zm11.222656-52.351562c.046875 2.609374-.964843 5.132812-2.804687 6.992187-1.84375 1.851563-4.355469 2.882813-6.96875 2.859375h-257.949219c-2.613281.023438-5.128906-1.007812-6.96875-2.859375-1.839844-1.859375-2.851563-4.382813-2.808594-6.992187v-45.539063c0-33.921875 27.375-62.109375 61.289063-62.109375h27.460937v-9.125c-4.480469-2.75-8.554687-6.117188-12.097656-10-16.117187-16.246094-25.234375-38.160156-25.402344-61.050781v-51.484375c.234375-35.179688 21.882813-66.675782 54.644531-79.503906 6.074219-4.152344 13.273438-6.367188 20.628907-6.335938h53.042969c33.9375-.023438 61.476562 27.453125 61.523437 61.386719-.003906 2.636719-1.0625 5.167969-2.9375 7.015625-1.882813 1.855468-4.421875 2.878906-7.0625 2.847656h-8.589844v66.074219c-.027343 22.847656-9.015625 44.765625-25.03125 61.050781-2.566406 2.9375-5.488281 5.535156-8.71875 7.722656v11.402344h27.460938c33.917969 0 61.289062 28.1875 61.289062 62.109375zm0 0"/><path d="m241.332031 342.867188c-9.972656 4.199218-20.6875 6.359374-31.507812 6.351562-9.730469.042969-19.390625-1.699219-28.492188-5.152344v3.613282l29.15625 19.296874 30.84375-19.4375zm0 0"/><path d="m288.792969 362.5h-34.320313l-34.390625 21.890625v55.609375h110v-35.390625c0-22.894531-18.398437-42.109375-41.289062-42.109375zm0 0"/><path d="m133.871094 362.5c-22.890625 0-41.289063 19.214844-41.289063 42.109375v35.390625h107.5v-55.75l-32.207031-21.75zm0 0"/></svg>