<svg id="_x33_0" enable-background="new 0 0 64 64" height="512" viewBox="0 0 64 64" width="512" xmlns="http://www.w3.org/2000/svg"><g><path d="m14.107 40.329c-.597-1.682-.959-3.469-1.056-5.329h-2c.101 2.13.517 4.175 1.209 6.094z"/><path d="m40.113 37.527-4.589-4.589-13.255-2.039-2.962-7.899h-11.893l14 14h13l2.352 2.352z"/><path d="m23.336 24.908-.954-1.908h-.939l.951 2.536z"/><path d="m17.898 46.688c-1.212-1.346-2.231-2.862-3.022-4.512l-1.849.766c.896 1.893 2.064 3.628 3.458 5.16z"/><path d="m11.421 29.835c-.209 1.041-.336 2.098-.386 3.165h2.003c.025-.476.068-.949.128-1.42z"/><path d="m31 13.045c-.672.032-1.338.094-2 .189v2.006c.661-.105 1.329-.177 2-.212z"/><path d="m39.094 14.26c-1.919-.692-3.964-1.108-6.094-1.209v2c1.86.098 3.647.459 5.329 1.056z"/><path d="m46.102 18.484c-1.532-1.394-3.267-2.562-5.16-3.458l-.766 1.848c1.651.791 3.167 1.811 4.512 3.023z"/><path d="m6 21h17.618l1.764 3.528c.145.291.438.472.764.472.471 0 .854-.383.854-.854v-18.146c0-1.654-1.346-3-3-3h-18c-1.654 0-3 1.346-3 3v12c0 1.654 1.346 3 3 3zm6-8h2v1c0 .551.449 1 1 1h1v-1c0-.551-.449-1-1-1-1.654 0-3-1.346-3-3v-3h2v-2h2v2.184c1.161.414 2 1.514 2 2.816v1h-2v-1c0-.551-.449-1-1-1h-1v1c0 .551.449 1 1 1 1.654 0 3 1.346 3 3v3h-2v2h-2v-2.184c-1.161-.414-2-1.514-2-2.816z"/><path d="m46.102 21.312c1.212 1.346 2.231 2.862 3.023 4.512l1.848-.766c-.896-1.893-2.064-3.628-3.458-5.16z"/><path d="m51.74 26.906-1.847.765c.597 1.682.959 3.469 1.056 5.329h2c-.101-2.13-.517-4.175-1.209-6.094z"/><path d="m49.893 40.329 1.847.765c.692-1.919 1.108-3.964 1.209-6.094h-2c-.097 1.86-.459 3.647-1.056 5.329z"/><path d="m40.176 51.125.766 1.848c1.893-.896 3.628-2.063 5.16-3.457l-1.413-1.414c-1.347 1.212-2.863 2.231-4.513 3.023z"/><path d="m57 54.414-6.613-6.613c-.736.978-1.552 1.893-2.431 2.741l6.458 6.458-2.333 2.333 8.703 1.45-1.451-8.702z"/><path d="m49.125 42.176c-.791 1.65-1.81 3.166-3.022 4.512l1.413 1.414c1.394-1.532 2.562-3.267 3.458-5.16z"/><path d="m33 52.949v2c2.13-.101 4.175-.517 6.094-1.209l-.765-1.847c-1.682.597-3.469.959-5.329 1.056z"/><path d="m17.899 49.516c1.532 1.394 3.267 2.561 5.16 3.457l.766-1.848c-1.651-.791-3.167-1.811-4.513-3.023z"/><path d="m49 34c0-9.374-7.626-17-17-17-1.01 0-2.012.114-3 .29v6.856c0 .31-.062.603-.154.883l.946.63 4.575-5.719 2.265 6.795 6.686-2.229-1.247 6.233 4.454 5.567-11.368 6.201 1.287 5.147-6.399-2.56-4.713 2.356-1.149-4.596-5.49-1.098 1.163-3.489-4.834-4.834c-.006.191-.022.379-.022.567 0 9.374 7.626 17 17 17s17-7.626 17-17z"/><path d="m24.906 53.74c1.919.692 3.964 1.108 6.094 1.209v-2c-1.86-.098-3.647-.459-5.329-1.056z"/><path d="m21 57h-2v2h-2v-6h-2v6h-2v-4h-2v4h-2v-8h-2v8h-2v-4h-2v6h22v-2h-4z"/><path d="m39 3v2h4v2h2v-2h2v6h2v-6h2v4h2v-4h2v8h2v-8h2v4h2v-6z"/></g></svg>