<svg height="512pt" viewBox="0 -6 512 512" width="512pt" xmlns="http://www.w3.org/2000/svg"><path d="m155 167c19.300781 0 35-15.699219 35-35s-15.699219-35-35-35-35 15.699219-35 35 15.699219 35 35 35zm0 0"/><path d="m175 197h-40c-19.300781 0-35 15.699219-35 35v11h110v-11c0-19.300781-15.699219-35-35-35zm0 0"/><path d="m0 0v350h512v-350zm240 273h-170v-41c0-25.234375 14.464844-47.140625 35.53125-57.90625-9.675781-11.351562-15.53125-26.046875-15.53125-42.09375 0-35.839844 29.160156-65 65-65s65 29.160156 65 65c0 16.046875-5.855469 30.742188-15.53125 42.09375 21.066406 10.765625 35.53125 32.671875 35.53125 57.90625zm116.621094-47.710938-51.457032-51.453124 21.214844-21.214844 30.242188 30.242187 58.621094-58.621093 21.210937 21.210937zm0 0"/><path d="m422 380h30v120h-30zm0 0"/><path d="m102 395h290v90h-290zm0 0"/><path d="m.785156 440 45 45h26.214844v-90h-26.214844zm0 0"/><path d="m482 395.363281v89.273438c16.9375-2.433594 30-17.035157 30-34.636719v-20c0-17.601562-13.0625-32.203125-30-34.636719zm0 0"/></svg>