<svg id="Capa_1" enable-background="new 0 0 512 512" height="512" viewBox="0 0 512 512" width="512" xmlns="http://www.w3.org/2000/svg"><g><path d="m436 212c-73.463 0-223.731 0-360 0-8.291 0-15 6.709-15 15s6.709 15 15 15h16.586l25.792 229.468c2.256 23.1 21.445 40.532 44.619 40.532h186.006c23.174 0 42.363-17.432 44.604-40.327l25.807-229.673h16.586c8.291 0 15-6.709 15-15s-6.709-15-15-15zm-243.911 239.897c-8.077.985-15.675-4.776-16.685-13.11l-18.003-150c-.981-8.218 4.878-15.688 13.11-16.685 8.408-.879 15.688 4.907 16.685 13.11l18.003 150c.982 8.219-4.878 15.689-13.11 16.685zm78.911-14.897c0 8.291-6.709 15-15 15s-15-6.709-15-15v-150c0-8.291 6.709-15 15-15s15 6.709 15 15zm65.596 1.787c-1.01 8.339-8.612 14.095-16.685 13.11-8.232-.996-14.092-8.467-13.11-16.685l18.003-150c.996-8.203 8.511-13.975 16.685-13.11 8.232.996 14.092 8.467 13.11 16.685z"/><path d="m191.386 170.566c24.067 7.793 48.427 9.434 64.614 9.434s40.547-1.641 64.614-9.434c40.675-13.203 70.386-40.883 70.386-84.17v-26.396c0-26.42-24.205-44.583-71.937-53.981-19.635-3.867-39.534-6.019-63.063-6.019-37.926 0-66.065 6.61-63.063 6.019-47.732 9.398-71.937 27.561-71.937 53.981v26.396c0 43.283 29.706 70.966 70.386 84.17zm169.614-110.566v26.396c0 20.405-10.078 36.196-30 47.124v-93.75c21.812 6.534 30 14.561 30 20.23zm-210 0c0-5.669 8.188-13.696 30-20.229v93.75c-19.922-10.928-30-26.719-30-47.124z"/></g></svg>