<svg id="Capa_1" enable-background="new 0 0 512 512" height="512" viewBox="0 0 512 512" width="512" xmlns="http://www.w3.org/2000/svg"><g><path d="m11.84 98.787v413.213h330v-512h-231.213zm90-47.574v38.787h-38.787zm210 430.787h-270v-362h90v-90h180z"/><path d="m461.84 201.917v-65.917c0-24.813-20.187-45-45-45s-45 20.187-45 45v306.213l30 30v39.787h30v-39.787l30-30v-162.402c6.351 7.005 13.609 13.29 21.68 18.67l16.641-24.962c-23.996-15.997-38.321-42.764-38.321-71.602zm-45-80.917c8.271 0 15 6.729 15 15v45h-30v-45c0-8.271 6.728-15 15-15zm15 90v150h-30v-150zm-15 233.787-15-15v-38.787h30v38.787z"/><path d="m206.84 180c8.271 0 15 6.729 15 15s-6.729 15-15 15-15-6.729-15-15h-30c0 19.555 12.541 36.228 30 42.42v32.58h30v-32.58c17.459-6.192 30-22.865 30-42.42 0-24.813-20.187-45-45-45-8.271 0-15-6.729-15-15s6.729-15 15-15 15 6.729 15 15h30c0-19.555-12.541-36.228-30-42.42v-32.58h-30v32.58c-17.459 6.192-30 22.865-30 42.42 0 24.813 20.186 45 45 45z"/><path d="m71.84 300h30v30h-30z"/><path d="m131.84 300h150v30h-150z"/><path d="m71.84 360h30v30h-30z"/><path d="m131.84 360h150v30h-150z"/><path d="m71.84 420h30v30h-30z"/><path d="m131.84 420h150v30h-150z"/></g></svg>