<svg height="512pt" viewBox="0 0 512 512" width="512pt" xmlns="http://www.w3.org/2000/svg"><path d="m318.359375 512h-124.71875l-11.519531-42c-8.585938-2.96875-17.015625-6.460938-25.191406-10.445312l-37.855469 21.5625-88.191407-88.191407 21.5625-37.855469c-3.984374-8.175781-7.476562-16.601562-10.441406-25.191406l-42.003906-11.519531v-124.71875l42-11.519531c2.96875-8.589844 6.460938-17.015625 10.445312-25.191406l-21.5625-37.851563 88.191407-88.191406 37.855469 21.5625c8.175781-3.984375 16.601562-7.480469 25.191406-10.445313l11.519531-42.003906h124.71875l11.519531 42c8.585938 2.96875 17.015625 6.460938 25.191406 10.445312l37.851563-21.5625 88.191406 88.191407-21.558593 37.855469c3.980468 8.175781 7.476562 16.601562 10.441406 25.191406l42.003906 11.519531v124.71875l-42 11.519531c-2.96875 8.589844-6.460938 17.015625-10.445312 25.191406l21.5625 37.851563-88.191407 88.191406-37.855469-21.5625c-8.175781 3.984375-16.601562 7.480469-25.191406 10.445313zm-101.839844-30h78.960938l9.789062-35.714844 7.917969-2.402344c12.144531-3.691406 23.988281-8.605468 35.207031-14.597656l7.300781-3.902344 32.195313 18.339844 55.832031-55.832031-18.339844-32.195313 3.898438-7.300781c5.996094-11.214843 10.90625-23.0625 14.597656-35.207031l2.40625-7.914062 35.714844-9.792969v-78.960938l-35.714844-9.792969-2.402344-7.914062c-3.695312-12.148438-8.605468-23.992188-14.597656-35.207031l-3.902344-7.300781 18.339844-32.195313-55.832031-55.832031-32.195313 18.339844-7.300781-3.902344c-11.21875-5.992188-23.0625-10.902344-35.207031-14.597656l-7.914062-2.402344-9.792969-35.714844h-78.960938l-9.789062 35.714844-7.917969 2.402344c-12.140625 3.691406-23.988281 8.605468-35.207031 14.597656l-7.300781 3.902344-32.195313-18.339844-55.832031 55.832031 18.339844 32.195313-3.902344 7.300781c-5.992188 11.214843-10.902344 23.0625-14.597656 35.207031l-2.402344 7.914062-35.714844 9.792969v78.960938l35.714844 9.792969 2.402344 7.914062c3.691406 12.144531 8.605468 23.988281 14.597656 35.207031l3.902344 7.300781-18.339844 32.195313 55.832031 55.832031 32.195313-18.339844 7.300781 3.902344c11.21875 5.992188 23.066406 10.902344 35.207031 14.597656l7.917969 2.402344zm0 0"/><path d="m256 301c-24.8125 0-45-20.1875-45-45s20.1875-45 45-45 45 20.1875 45 45-20.1875 45-45 45zm0-60c-8.269531 0-15 6.730469-15 15s6.730469 15 15 15 15-6.730469 15-15-6.730469-15-15-15zm0 0"/><path d="m256 361c-57.898438 0-105-47.101562-105-105s47.101562-105 105-105 105 47.101562 105 105-47.101562 105-105 105zm0-180c-41.355469 0-75 33.644531-75 75s33.644531 75 75 75 75-33.644531 75-75-33.644531-75-75-75zm0 0"/></svg>