<?xml version="1.0" encoding="iso-8859-1"?>
<!-- Generator: Adobe Illustrator 19.0.0, SVG Export Plug-In . SVG Version: 6.00 Build 0)  -->
<svg version="1.1" id="Layer_1" xmlns="http://www.w3.org/2000/svg" xmlns:xlink="http://www.w3.org/1999/xlink" x="0px" y="0px"
	 viewBox="0 0 512 512" style="enable-background:new 0 0 512 512;" xml:space="preserve">
<g>
	<g>
		<path d="M0,59.302v393.395h512V59.302H0z M237.621,157.592h137.364v30.417H237.621V157.592z M237.621,273.254h137.364v30.417
			H237.621V273.254z M119.733,138.195c27.577,0,49.933,22.356,49.933,49.933c-0.001,27.578-22.357,49.933-49.933,49.933
			c-27.577,0-49.933-22.356-49.933-49.933S92.156,138.195,119.733,138.195z M198.415,380.219H41.05v-93.627
			c0-17.582,7.156-33.525,18.71-45.067c14.727,16.524,36.151,26.955,59.974,26.955c23.823,0,45.247-10.431,59.974-26.955
			c11.552,11.542,18.709,27.484,18.709,45.067V380.219z M471.976,354.407H237.621v-30.417h234.355V354.407z M471.976,238.745
			H237.621v-30.417h234.355V238.745z"/>
	</g>
</g>
<g>
</g>
<g>
</g>
<g>
</g>
<g>
</g>
<g>
</g>
<g>
</g>
<g>
</g>
<g>
</g>
<g>
</g>
<g>
</g>
<g>
</g>
<g>
</g>
<g>
</g>
<g>
</g>
<g>
</g>
</svg>
