<svg id="Layer_35" enable-background="new 0 0 64 64" height="512" viewBox="0 0 64 64" width="512" xmlns="http://www.w3.org/2000/svg"><path d="m57 23h-2.184c-.414 1.161-1.514 2-2.816 2-.352 0-.686-.072-1-.184v5.296c0 1.39-.329 2.782-.95 4.025l-1.708 3.416c-.446.892-1.344 1.447-2.342 1.447s-1.896-.555-2.342-1.447l-1.708-3.416c-.621-1.243-.95-2.636-.95-4.026v-7.111h-3c-2.757 0-5 2.243-5 5v21h24zm-6 24h-16v-2h16zm4 0h-2v-2h2zm0-4h-20v-2h20zm0-6h-2v-2h2zm0-4h-2v-2h2zm0-4h-2v-2h2z"/><path d="m33 51h24v2h-24z"/><path d="m22 21c4.962 0 9-4.037 9-9s-4.038-9-9-9-9 4.037-9 9 4.038 9 9 9zm6-10c.552 0 1 .448 1 1s-.448 1-1 1-1-.448-1-1 .448-1 1-1zm-6 2c-1.654 0-3-1.346-3-3v-3h2v-2h2v2.184c1.161.414 2 1.514 2 2.816h-2c0-.552-.449-1-1-1h-1v1c0 .552.449 1 1 1 1.654 0 3 1.346 3 3v3h-2v2h-2v-2.184c-1.161-.414-2-1.514-2-2.816h2c0 .552.449 1 1 1h1v-1c0-.552-.449-1-1-1zm-7-1c0-.552.448-1 1-1s1 .448 1 1-.448 1-1 1-1-.448-1-1z"/><path d="m21 31h2v14h-2z"/><path d="m45.447 36.658c.211.422.895.422 1.105 0l1.708-3.416c.04-.078.068-.162.105-.242h-4.729c.036.08.065.164.104.242z"/><path d="m52 23c.551 0 1-.448 1-1v-12c0-.552-.449-1-1-1s-1 .448-1 1v12c0 .552.449 1 1 1z"/><path d="m49 10v-4c0-1.654-1.346-3-3-3s-3 1.346-3 3v9h6z"/><path d="m48.939 31c.038-.295.061-.592.061-.889v-8.111-5h-6v13.111c0 .297.023.594.061.889z"/><path d="m59 27v28h-54v-28h-2v27c0 1.654 1.346 3 3 3h23v1c0 1.654 1.346 3 3 3s3-1.346 3-3v-1h23c1.654 0 3-1.346 3-3v-27z"/><path d="m17 31h2v14h-2z"/><path d="m11 27h4v2h-4z"/><path d="m11 31h4v14h-4z"/><path d="m25 31h2v14h-2z"/><path d="m17 27h10v2h-10z"/><path d="m7 51h24v2h-24z"/><path d="m31 28c0-2.757-2.243-5-5-5h-19v26h24zm-2 19h-20v-22h20z"/></svg>