<svg id="Layer_1" enable-background="new 0 0 512 512" height="512" viewBox="0 0 512 512" width="512" xmlns="http://www.w3.org/2000/svg"><g><path d="m276.437 231.372c0-11.238-9.143-20.381-20.381-20.381s-20.38 9.143-20.38 20.381 9.143 20.381 20.38 20.381c11.239-.001 20.381-9.144 20.381-20.381z"/><path d="m256 152.547c-57.044 0-103.453 46.409-103.453 103.453 0 23.248 7.71 44.727 20.704 62.021 3.713-16.621 12.366-31.786 25.038-43.569 5.38-5.002 11.327-9.216 17.671-12.623-6.446-8.466-10.284-19.02-10.284-30.458 0-27.78 22.601-50.381 50.38-50.381 27.78 0 50.381 22.601 50.381 50.381 0 11.438-3.838 21.993-10.285 30.459 6.129 3.291 11.888 7.334 17.119 12.112 12.921 11.803 21.767 27.146 25.554 43.98 12.949-17.276 20.628-38.719 20.628-61.922 0-57.044-46.409-103.453-103.453-103.453z"/><path d="m497 202.091h-30.723c-5.086-19.955-12.948-38.929-23.475-56.655l21.729-21.73c5.858-5.858 5.858-15.355 0-21.213l-55.025-55.025c-2.813-2.813-6.628-4.394-10.606-4.394-3.979 0-7.793 1.58-10.606 4.394l-21.73 21.73c-17.726-10.526-36.699-18.388-56.655-23.474v-30.724c0-8.284-6.716-15-15-15h-77.817c-8.284 0-15 6.716-15 15v30.723c-19.956 5.086-38.929 12.948-56.655 23.474l-21.73-21.73c-2.813-2.813-6.628-4.394-10.606-4.394s-7.793 1.58-10.606 4.394l-55.025 55.025c-5.858 5.858-5.858 15.355 0 21.213l21.729 21.73c-10.526 17.726-18.388 36.7-23.475 56.655h-30.724c-8.284 0-15 6.716-15 15v77.817c0 8.284 6.716 15 15 15h30.723c5.086 19.955 12.948 38.929 23.475 56.655l-21.729 21.73c-5.858 5.858-5.858 15.355 0 21.213l55.025 55.025c2.813 2.813 6.628 4.394 10.606 4.394 3.979 0 7.793-1.58 10.606-4.394l21.73-21.73c17.726 10.526 36.699 18.388 56.655 23.474v30.726c0 8.284 6.716 15 15 15h77.817c8.284 0 15-6.716 15-15v-30.723c19.956-5.086 38.929-12.948 56.655-23.474l21.73 21.73c2.813 2.813 6.628 4.394 10.606 4.394s7.793-1.58 10.606-4.394l55.025-55.025c5.858-5.858 5.858-15.355 0-21.213l-21.729-21.73c10.526-17.726 18.388-36.7 23.475-56.655h30.724c8.284 0 15-6.716 15-15v-77.817c0-8.286-6.716-15.002-15-15.002zm-241 187.362c-73.586 0-133.453-59.867-133.453-133.453s59.867-133.453 133.453-133.453 133.453 59.867 133.453 133.453-59.867 133.453-133.453 133.453z"/></g><path d="m310.08 327.084c-3.827-27.554-26.428-47.232-54.08-47.232-28.661 0-52.146 22.094-54.394 50.176-.193 2.611-.193 13.812-.193 13.812 15.855 9.889 34.564 15.613 54.587 15.613s38.732-5.724 54.587-15.613c0 0 .248-11.316-.507-16.756z"/></svg>