<svg id="Layer_35" enable-background="new 0 0 64 64" height="512" viewBox="0 0 64 64" width="512" xmlns="http://www.w3.org/2000/svg"><path d="m62 43c0-1.105-.895-2-2-2 1.105 0 2-.895 2-2s-.895-2-2-2h-3v4 4 4 4h3c1.105 0 2-.895 2-2s-.895-2-2-2c1.105 0 2-.895 2-2s-.895-2-2-2c1.105 0 2-.895 2-2z"/><path d="m7.545 28.399c1.117.886 2.785.28 3.131-1.103.188-.751-.082-1.538-.686-2.022-2.432-1.948-3.956-4.773-3.99-8.16-.054-5.434 4.011-10.238 9.391-11 4.723-.669 8.972 1.665 11.124 5.37l-2.515 2.516h8v-8l-2.59 2.59c-2.976-4.383-8.202-7.114-14.024-6.505-7.137.746-12.845 6.665-13.347 13.823-.363 5.169 1.864 9.601 5.506 12.491z"/><path d="m15 52h4v-9.586l-2.414-2.414 2.414-2.414v-3.586h-4z"/><path d="m39 34h-10.515c-1.336 0-2.592.521-3.536 1.465l-.535.535h-3.414v14h3.236l2.944 1.472c.691.345 1.464.528 2.236.528h1.584v-10.935c-1.05.605-2.241.935-3.485.935h-2.515v-2h2.515c1.336 0 2.592-.521 3.536-1.465l.535-.535h3.414c2.206 0 4-1.794 4-4z"/><path d="m36.899 19h-3.899v3.899c1.956-.399 3.5-1.943 3.899-3.899z"/><path d="m33 57.101v3.899h3.899c-.399-1.956-1.943-3.5-3.899-3.899z"/><path d="m3 34h10v18h-10z"/><path d="m49.08 19h-10.16c-.441 3.059-2.861 5.479-5.92 5.92v7.08h.78c2.456-3.131 6.227-5 10.22-5 4.633 0 8.697 2.445 11 6.104v-8.184c-3.059-.441-5.479-2.861-5.92-5.92z"/><path d="m44 29c-2.815 0-5.498 1.103-7.521 3h2.521c.737 0 1.375.405 1.722 1h2.278v-2h2v2c2.206 0 4 1.794 4 4h-2c0-1.103-.897-2-2-2h-4v2c0 1.103.897 2 2 2h2c2.206 0 4 1.794 4 4v4h-4v2h-2v-2c-2.206 0-4-1.794-4-4h2c0 1.103.897 2 2 2h4v-2c0-1.103-.897-2-2-2h-2c-1.764 0-3.247-1.155-3.778-2.742-1.085 1.076-2.577 1.742-4.222 1.742h-2c0 6.065 4.935 11 11 11s11-4.935 11-11-4.935-11-11-11z"/><path d="m51.101 61h3.899v-3.899c-1.956.399-3.5 1.943-3.899 3.899z"/><path d="m55 22.899v-3.899h-3.899c.399 1.956 1.943 3.5 3.899 3.899z"/><path d="m44 53c-4.633 0-8.697-2.445-11-6.104v8.184c3.059.441 5.479 2.861 5.92 5.92h10.16c.441-3.059 2.861-5.479 5.92-5.92v-8.184c-2.303 3.659-6.367 6.104-11 6.104z"/></svg>