<svg id="Capa_1" enable-background="new 0 0 512 512" height="512" viewBox="0 0 512 512" width="512" xmlns="http://www.w3.org/2000/svg"><g><path d="m270.863 467.767c-7.428-2.556-14.352-5.365-16.478-6.241-1.662-1.277-1.647-3.107-1.555-3.872.129-1.062.842-3.667 4.666-4.911 8.392-2.733 16.36 3.277 16.593 3.455 3.226 2.56 7.921 2.038 10.505-1.178 2.595-3.229 2.081-7.949-1.146-10.544-.578-.463-14.311-11.294-30.592-5.996-8.227 2.676-13.941 9.332-14.916 17.37-.914 7.542 2.503 14.702 8.919 18.687.336.208 9.744 4.187 19.123 7.414 2.65.913 8.741 3.518 8.043 7.994-.525 3.366-4.532 6.923-10.328 7.05-6.001.135-11.752-2.147-15.488-6.092-2.85-3.009-7.597-3.138-10.603-.29-3.008 2.848-3.138 7.595-.29 10.603 6.426 6.787 16.062 10.784 25.913 10.784.265 0 .531-.003.796-.009 12.642-.277 23.08-8.577 24.821-19.734 1.31-8.397-2.726-19.239-17.983-24.49z"/><path d="m370.519 423.278 8.169-4.089c3.704-1.854 5.203-6.359 3.35-10.063-1.855-3.704-6.357-5.204-10.064-3.35l-29.631 14.832c-3.704 1.854-5.203 6.359-3.35 10.063 1.315 2.626 3.963 4.145 6.713 4.145 1.128 0 2.273-.255 3.352-.795l8.048-4.028 23.499 46.947c1.315 2.626 3.963 4.145 6.713 4.145 1.128 0 2.273-.255 3.352-.795 3.704-1.854 5.203-6.359 3.35-10.063z"/><path d="m224.915 435.303-24.81-4.865c-1.952-.383-3.976.025-5.627 1.135-1.651 1.109-2.794 2.83-3.176 4.781l-11.546 58.878c-.798 4.065 1.852 8.006 5.916 8.803l24.809 4.865c.487.096.973.142 1.451.142 3.514 0 6.65-2.481 7.352-6.058.798-4.065-1.852-8.006-5.916-8.803l-17.449-3.422 2.887-14.719 15.62 3.063c.487.096.973.142 1.451.142 3.514 0 6.65-2.481 7.352-6.058.798-4.065-1.852-8.006-5.916-8.803l-15.62-3.063 2.887-14.719 17.449 3.422c4.067.798 8.006-1.853 8.803-5.917.797-4.065-1.853-8.006-5.917-8.804z"/><path d="m339.731 484.855-17.217 4.445-3.75-14.524 15.413-3.979c4.011-1.035 6.422-5.126 5.387-9.137-1.035-4.01-5.122-6.426-9.137-5.387l-15.412 3.979-3.75-14.524 17.218-4.445c4.011-1.035 6.422-5.126 5.387-9.137-1.035-4.01-5.123-6.427-9.137-5.387l-24.479 6.32c-1.926.497-3.575 1.739-4.586 3.453-1.01 1.713-1.298 3.758-.801 5.684l14.999 58.095c.873 3.382 3.918 5.627 7.257 5.627.62 0 1.251-.078 1.88-.24l24.479-6.32c4.011-1.035 6.422-5.126 5.387-9.137-1.036-4.01-5.125-6.424-9.138-5.386z"/><path d="m166.762 418.731-14.664-6.284c-3.81-1.631-8.216.133-9.848 3.939l-23.639 55.148c-1.632 3.807.132 8.216 3.938 9.848.964.413 1.966.608 2.951.608 2.91 0 5.679-1.704 6.897-4.547l6.691-15.61 9.108 27.768c1.036 3.16 3.971 5.165 7.125 5.165.774 0 1.563-.121 2.339-.375 3.936-1.291 6.079-5.528 4.788-9.464l-7.195-21.935c3.783.466 7.64.039 11.286-1.291 6.032-2.198 10.707-6.567 13.164-12.302 5.017-11.704-.789-25.462-12.941-30.668zm-.843 24.761c-.81 1.889-2.412 3.351-4.513 4.116-2.209.804-4.731.728-6.925-.211-1.815-.778-4.91-2.088-7.786-3.304l6.389-14.904 7.771 3.33c4.472 1.916 6.791 6.941 5.064 10.973z"/><path d="m256 0c-116.346 0-211 94.654-211 211s94.654 211 211 211 211-94.654 211-211-94.655-211-211-211zm0 407c-108.075 0-196-87.925-196-196s87.925-196 196-196 196 87.925 196 196-87.925 196-196 196z"/><path d="m256 332c66.72 0 121-54.28 121-121s-54.281-121-121-121-121 54.28-121 121 54.28 121 121 121zm0-227c58.448 0 106 47.551 106 106s-47.552 106-106 106-106-47.551-106-106 47.552-106 106-106z"/><path d="m255.976 302c.738 0 1.482-.009 2.225-.026 49.662-1.175 89.493-42.573 88.789-92.283-.214-15.13-4.229-30.068-11.613-43.199-5.037-8.958-15.12-13.222-25.091-10.61-10.04 2.629-16.786 11.351-16.786 21.702v.171c0 3.934.963 7.754 2.784 11.046 3.864 6.989 5.839 14.926 5.71 22.953-.399 24.917-21.007 45.214-45.936 45.245h-.058c-12.276 0-23.819-4.776-32.507-13.453-8.701-8.69-13.493-20.249-13.493-32.546 0-7.723 1.959-15.366 5.664-22.104 1.855-3.373 2.836-7.101 2.836-10.782v-.537c0-10.35-6.749-19.074-16.794-21.708-9.958-2.61-20.023 1.638-25.053 10.57-7.624 13.533-11.653 28.942-11.653 44.561 0 24.714 9.739 47.837 27.423 65.107 17.149 16.748 39.64 25.893 63.553 25.893zm-66.254-128.2c1.708-3.033 4.247-3.684 6.112-3.684.903 0 1.648.153 2.065.262 2.707.71 5.6 2.974 5.6 7.199v.537c0 1.16-.339 2.389-.979 3.553-4.92 8.947-7.52 19.09-7.52 29.333 0 16.308 6.354 31.636 17.893 43.16s26.904 17.896 43.184 17.84c33.06-.041 60.386-26.958 60.916-60.005.171-10.643-2.451-21.172-7.582-30.453-.596-1.077-.91-2.386-.91-3.787v-.171c0-4.224 2.886-6.484 5.586-7.191 1.285-.335 5.668-1.082 8.217 3.452 6.16 10.955 9.511 23.423 9.689 36.058.588 41.519-32.674 76.095-74.146 77.075-20.615.485-40.178-7.183-54.942-21.602-14.771-14.424-22.905-33.735-22.905-54.376 0-13.045 3.362-25.908 9.722-37.2z"/><path d="m241 218.5h30c4.143 0 7.5-3.358 7.5-7.5v-68.5c0-12.407-10.094-22.5-22.5-22.5s-22.5 10.093-22.5 22.5v68.5c0 4.142 3.357 7.5 7.5 7.5zm7.5-76c0-4.136 3.364-7.5 7.5-7.5s7.5 3.364 7.5 7.5v61h-15z"/><path d="m256 30c-42.555 0-83.907 15.071-116.439 42.437-3.17 2.666-3.578 7.397-.911 10.567 2.666 3.169 7.396 3.578 10.567.911 29.833-25.095 67.755-38.915 106.783-38.915 91.532 0 166 74.467 166 166s-74.468 166-166 166-166-74.467-166-166c0-39.028 13.82-76.951 38.915-106.783 2.667-3.17 2.259-7.901-.911-10.567s-7.9-2.258-10.567.911c-27.366 32.531-42.437 73.883-42.437 116.439 0 99.804 81.196 181 181 181s181-81.196 181-181-81.197-181-181-181z"/></g></svg>