<svg id="Layer_5" enable-background="new 0 0 64 64" height="512" viewBox="0 0 64 64" width="512" xmlns="http://www.w3.org/2000/svg"><g><path d="m26 8h5v13h-6v2h14v-2h-6v-13h5c3.314 0 6-2.686 6-6h-6c-3.314 0-6 2.686-6 6 0-3.314-2.686-6-6-6h-6c0 3.314 2.686 6 6 6z"/><path d="m23 25h18v2h-18z"/><path d="m21 23h2v-4h1.949c-.507-5.598-5.221-10-10.949-10-6.065 0-11 4.935-11 11s4.935 11 11 11c2.566 0 5.037-.922 7-2.551zm-3-5h-2v-1c0-1.103-.897-2-2-2h-2v2c0 1.103.897 2 2 2 2.206 0 4 1.794 4 4v4h-3v2h-2v-2.142c-1.72-.447-3-1.999-3-3.858v-1h2v1c0 1.103.897 2 2 2h2v-2c0-1.103-.897-2-2-2-2.206 0-4-1.794-4-4v-4h3v-2h2v2.142c1.72.447 3 1.999 3 3.858z"/><path d="m39.499 33.023-.499-.289v-3.734h-14v3.734l-.499.289c-4.626 2.681-7.501 7.653-7.501 12.977 0 8.271 6.729 15 15 15s15-6.729 15-15c0-5.324-2.875-10.296-7.501-12.977zm-2.499 8.977h-2v-1c0-1.103-.897-2-2-2h-4v4c0 1.103.897 2 2 2h2c2.206 0 4 1.794 4 4v6h-4v2h-2v-2c-2.206 0-4-1.794-4-4v-1h2v1c0 1.103.897 2 2 2h4v-4c0-1.103-.897-2-2-2h-2c-2.206 0-4-1.794-4-4v-6h4v-2h2v2c2.206 0 4 1.794 4 4z"/><path d="m50 9c-5.728 0-10.442 4.402-10.949 10h1.949v4h2v5.449c1.963 1.629 4.434 2.551 7 2.551 6.065 0 11-4.935 11-11s-4.935-11-11-11zm4 9h-2v-1c0-1.103-.897-2-2-2h-2v2c0 1.103.897 2 2 2 2.206 0 4 1.794 4 4v4h-3v2h-2v-2.142c-1.72-.447-3-1.999-3-3.858v-1h2v1c0 1.103.897 2 2 2h2v-2c0-1.103-.897-2-2-2-2.206 0-4-1.794-4-4v-4h3v-2h2v2.142c1.72.447 3 1.999 3 3.858z"/></g></svg>