<?xml version="1.0" encoding="iso-8859-1"?>
<!-- Generator: Adobe Illustrator 19.0.0, SVG Export Plug-In . SVG Version: 6.00 Build 0)  -->
<svg version="1.1" id="Layer_1" xmlns="http://www.w3.org/2000/svg" xmlns:xlink="http://www.w3.org/1999/xlink" x="0px" y="0px"
	 viewBox="0 0 511.998 511.998" style="enable-background:new 0 0 511.998 511.998;" xml:space="preserve">
<g>
	<g>
		<path d="M492.773,224.419c-0.007,0-0.014,0-0.021,0l-5.23,0.007c-2.154-32.054-26.262-58.294-57.897-64.704
			c0.887-8.951-6.138-16.606-15.024-16.606c-8.866,0-15.909,7.632-15.024,16.606c-31.695,6.423-55.838,32.752-57.911,64.889
			l-153.08,0.194l121.282-39.746c1.117-0.366,2.031-1.18,2.524-2.247c0.493-1.067,0.519-2.29,0.076-3.378
			c-12.093-29.653-43.112-46.978-75.09-43.227c-2.037-9.202-11.908-14.372-20.685-10.626c2.209,2.581,4.108,5.456,5.593,8.604
			c9.003,19.084,1.113,42.456-18.571,51.738l-31.509,14.864c-0.839,7.894-0.324,16.006,1.69,24.036l-42.549,0.053v34.916
			l361.45-0.458c9.642-0.012,17.449-7.838,17.437-17.48C510.219,232.22,502.406,224.419,492.773,224.419z"/>
	</g>
</g>
<g>
	<g>
		<path d="M64.423,0.001C40.249,0.116,20.746,19.807,20.862,43.982c0.116,24.264,19.932,43.677,43.98,43.561
			c24.044-0.115,43.678-19.712,43.561-43.98C108.288,19.389,88.597-0.114,64.423,0.001z"/>
	</g>
</g>
<g>
	<g>
		<path d="M205.065,142.307c-4.65-9.861-16.475-14.155-26.397-9.475L116.626,162.1l-64.556-39.005l61.363,18.199l-0.038-8.6
			c-0.036-7.844-3.185-15.352-8.757-20.873c-5.538-5.487-13.018-8.48-20.812-8.48c-0.047,0-0.095,0-0.141,0H30.955
			c-16.327,0.078-29.261,13.543-29.188,29.868c0,26.997,0,340.074,0,355.689c0,12.758,10.288,23.1,23.047,23.1
			c12.759,0,23.1-10.342,23.1-23.1c0-8.13,0-183.696,0-191.388l18.99-0.091c1.414,12.455,7.419,65.38,8.36,73.678v117.801
			c0,12.758,10.342,23.1,23.1,23.1c12.758,0,23.1-10.342,23.1-23.1V369.793l-7.499-72.597v-73.811
			c-8.467-0.365-17.468-3.736-22.06-8.226l-57.978-56.684l71.287,43.072c5.666,3.424,12.726,3.787,18.717,0.962l71.659-33.804
			C205.515,164.023,209.725,152.184,205.065,142.307z"/>
	</g>
</g>
<g>
</g>
<g>
</g>
<g>
</g>
<g>
</g>
<g>
</g>
<g>
</g>
<g>
</g>
<g>
</g>
<g>
</g>
<g>
</g>
<g>
</g>
<g>
</g>
<g>
</g>
<g>
</g>
<g>
</g>
</svg>
