<svg height="464pt" viewBox="0 0 464 464" width="464pt" xmlns="http://www.w3.org/2000/svg"><path d="m81.601562 236.480469 10.789063 37.757812 23.632813-18.902343-22.34375-22.34375zm0 0"/><path d="m174.398438 236.480469-12.078126-3.488281-22.34375 22.34375 23.632813 18.902343zm0 0"/><path d="m152 220.6875v-9.398438c-7.414062 3.015626-15.511719 4.710938-24 4.710938s-16.585938-1.695312-24-4.710938v9.398438l24 24zm0 0"/><path d="m128 266.246094-19.136719 15.304687 14.449219 14.449219h9.375l14.449219-14.449219zm0 0"/><path d="m192 152c0 2.710938-.222656 5.375-.550781 8h.550781c8.824219 0 16-7.175781 16-16s-7.175781-16-16-16zm0 0"/><path d="m64 96h8c12.296875 0 23.71875-6.097656 30.566406-16.296875l7.488282-11.160156 6.746093 5.050781c19.207031 14.382812 43.007813 22.34375 67.015625 22.40625l7.976563.023438.207031 7.976562v8c5.855469 0 11.273438 1.695312 16 4.449219v-51.464844c0-15.746094-10.664062-29.410156-25.9375-33.222656l-2.160156-.53125-10.367188-10.375c-13.4375-13.449219-31.328125-20.855469-50.34375-20.855469-39.253906 0-71.191406 31.9375-71.191406 71.191406v45.257813c4.726562-2.753907 10.144531-4.449219 16-4.449219zm0 0"/><path d="m126.246094 312-12.007813 48h27.523438l-12.007813-48zm0 0"/><path d="m176 111.734375c-21.992188-1.421875-43.503906-8.558594-61.96875-20.558594-8.335938 10.960938-20.542969 18.167969-34.03125 20.222657v40.601562c0 26.472656 21.527344 48 48 48s48-21.527344 48-48zm0 0"/><path d="m224 334.777344-6.839844 4.550781c-4.273437 3.015625-9.496094 4.671875-14.945312 4.671875-14.453125 0-26.214844-11.761719-26.214844-26.214844v-4.296875c0-8.550781 4.183594-16.585937 11.183594-21.480469l51.863281-34.480468c-3.632813-2.566406-7.632813-4.597656-11.957031-5.847656l-37.320313-10.769532-17.386719 60.851563-12.6875-10.152344-14.847656 14.847656 13.390625 53.542969h59.648438l6.113281 3.054688zm0 0"/><path d="m240 324.136719v46.917969l41.886719 20.945312-41.886719 20.945312v51.054688h176v-139.863281l-88-58.527344zm129.34375-16.578125 13.3125 8.875-13.039062 19.566406h30.382812v112h-144v-32h16v16h112v-80h-25.054688l-45.707031 68.550781-30.894531-30.894531 11.3125-11.3125 17.105469 17.105469 28.957031-43.449219h-67.71875v16h-16v-32h94.382812zm0 0"/><path d="m224 380.945312v22.109376l22.113281-11.054688zm0 0"/><path d="m459.640625 305.121094-131.640625-87.511719-131.800781 87.613281c-2.574219 1.800782-4.199219 4.9375-4.199219 8.265625v4.296875c0 5.628906 4.585938 10.214844 10.214844 10.214844 2.121094 0 4.160156-.648438 5.898437-1.871094l119.886719-79.738281 119.878906 79.738281c1.746094 1.222656 3.785156 1.871094 5.90625 1.871094 5.628906 0 10.214844-4.585938 10.214844-10.214844v-4.296875c0-3.328125-1.625-6.464843-4.359375-8.367187zm0 0"/><path d="m48 328h16v32h33.761719l13.382812-53.542969-14.847656-14.847656-12.6875 10.152344-17.386719-60.839844-37.3125 10.757813c-17.023437 4.914062-28.910156 20.71875-28.910156 38.433593v93.886719h33.136719c2.167969-8.34375 7.589843-15.304688 14.863281-19.550781zm0 0"/><path d="m64 160h.550781c-.328125-2.625-.550781-5.289062-.550781-8v-24c-8.824219 0-16 7.175781-16 16s7.175781 16 16 16zm0 0"/><path d="m96 376h112v32h-112zm0 0"/><path d="m48 392c0 8.824219 7.175781 16 16 16h16v-32h-16c-8.824219 0-16 7.175781-16 16zm0 0"/></svg>