<svg height="448pt" viewBox="-32 0 448 448" width="448pt" xmlns="http://www.w3.org/2000/svg"><path d="m315.199219 246.402344 9.601562-12.800782 32 24-9.601562 12.800782zm0 0"/><path d="m256 256c-53.019531 0-96 42.980469-96 96s42.980469 96 96 96 96-42.980469 96-96c-.042969-53-43-95.957031-96-96zm0 176c-44.183594 0-80-35.816406-80-80s35.816406-80 80-80 80 35.816406 80 80c-.070312 44.152344-35.847656 79.929688-80 80zm0 0"/><path d="m256 288c-35.347656 0-64 28.652344-64 64s28.652344 64 64 64 64-28.652344 64-64c-.046875-35.324219-28.675781-63.953125-64-64zm0 88c-11.617188-.089844-21.5-8.488281-23.46875-19.933594-1.964844-11.449218 4.550781-22.664062 15.46875-26.625v-25.441406h16v25.441406c10.917969 3.960938 17.433594 15.175782 15.46875 26.625-1.96875 11.445313-11.851562 19.84375-23.46875 19.933594zm0 0"/><path d="m8 0c-4.417969 0-8 3.582031-8 8v384h151.519531c-4.957031-12.753906-7.503906-26.316406-7.519531-40 .117188-58.683594 45.46875-107.351562 104-111.601562v-16.398438h-16v-16h48v16h-16v16.398438c8.140625.554687 16.191406 2.03125 24 4.402343v-236.800781c.023438-2.730469.507812-5.433594 1.441406-8zm24 40h32v16h-32zm0 32h80v16h-80zm0 32h48v16h-48zm64 80h-64v-16h64zm68.800781 86.398438-9.601562-12.796876 32-24 9.601562 12.796876zm91.199219-86.398438h-144v-16h144zm0-32h-224v-16h224zm0-32h-160v-16h160zm0-32h-128v-16h128zm0-32h-176v-16h176zm0 0"/><path d="m264 352c0 4.417969-3.582031 8-8 8s-8-3.582031-8-8 3.582031-8 8-8 8 3.582031 8 8zm0 0"/><path d="m304 8v104h33.472656c-.949218-2.5625-1.445312-5.269531-1.472656-8v-96c0-4.417969-3.582031-8-8-8h-16c-4.417969 0-8 3.582031-8 8zm0 0"/><path d="m384 104v-40h-32v40c0 4.417969 3.582031 8 8 8h16c4.417969 0 8-3.582031 8-8zm0 0"/></svg>